<svg width="920" height="180" viewBox="0 0 920 180" fill="none" xmlns="http://www.w3.org/2000/svg" role="img" aria-labelledby="logoTitle logoDesc">
  <title id="logoTitle">firsthomefix.com logo</title>
  <desc id="logoDesc">A professional logo for a DIY home repair website featuring a house, wrench, and leaf accents beside the firsthomefix.com wordmark.</desc>
  <defs>
    <linearGradient id="roof" x1="55" y1="28" x2="122" y2="92" gradientUnits="userSpaceOnUse">
      <stop stop-color="#D97932"/>
      <stop offset="1" stop-color="#A8531B"/>
    </linearGradient>
    <linearGradient id="body" x1="49" y1="78" x2="127" y2="150" gradientUnits="userSpaceOnUse">
      <stop stop-color="#FFF5EA"/>
      <stop offset="1" stop-color="#F0D7BF"/>
    </linearGradient>
    <linearGradient id="tool" x1="60" y1="104" x2="121" y2="145" gradientUnits="userSpaceOnUse">
      <stop stop-color="#2F6F4F"/>
      <stop offset="1" stop-color="#224D38"/>
    </linearGradient>
    <filter id="shadow" x="0" y="0" width="188" height="188" filterUnits="userSpaceOnUse" color-interpolation-filters="sRGB">
      <feDropShadow dx="0" dy="10" stdDeviation="10" flood-color="#1F2933" flood-opacity="0.14"/>
    </filter>
  </defs>
  <g filter="url(#shadow)">
    <rect x="18" y="18" width="152" height="152" rx="34" fill="#FFFDF9"/>
  </g>
  <path d="M39 89.5L94 42L149 89.5" stroke="url(#roof)" stroke-width="18" stroke-linecap="round" stroke-linejoin="round"/>
  <path d="M52 88C52 82.4772 56.4772 78 62 78H126C131.523 78 136 82.4772 136 88V127C136 132.523 131.523 137 126 137H62C56.4772 137 52 132.523 52 127V88Z" fill="url(#body)"/>
  <rect x="84" y="103" width="20" height="34" rx="10" fill="#D97932"/>
  <path d="M113 78V58C113 54.6863 115.686 52 119 52H124C127.314 52 130 54.6863 130 58V78" fill="#C28A5A"/>
  <path d="M70 97C69.5295 95.1179 70.9529 93.3007 72.8903 93.3007H79.6854C81.0178 93.3007 82.1817 94.1967 82.5221 95.4848L86.6784 111.214L101.906 94.824C102.567 94.1118 103.494 93.706 104.465 93.706H112.926C115.299 93.706 116.717 96.3406 115.414 98.323L106.951 111.202C106.244 112.277 106.24 113.665 106.941 114.744L112.394 123.131C113.679 125.107 112.259 127.725 109.899 127.725H103.649C102.495 127.725 101.419 127.146 100.782 126.185L96.7777 120.15L90.9217 126.72C90.2576 127.465 89.3057 127.892 88.3058 127.892H82.6088C81.2544 127.892 80.0757 126.97 79.7519 125.671L70 97Z" fill="url(#tool)"/>
  <path d="M125 113C134.389 112.906 140.944 116.227 144 123C136.952 124.437 131.413 122.06 127.6 116.4" stroke="#72A37F" stroke-width="7" stroke-linecap="round" stroke-linejoin="round"/>
  <path d="M128 120C131.918 120.054 135.554 121.936 138 125.1" stroke="#72A37F" stroke-width="4.5" stroke-linecap="round"/>
  <g fill="#1F2933">
    <text x="204" y="108" font-family="Inter, Arial, sans-serif" font-size="68" font-weight="800" letter-spacing="-1.8">firsthomefix.com</text>
  </g>
</svg>
